<?xml version="1.0" encoding="UTF-8"?>
<svg xmlns="http://www.w3.org/2000/svg" xmlns:xlink="http://www.w3.org/1999/xlink" width="32px" height="32px" viewBox="0 0 32 32" version="1.1">
<g id="surface1">
<path style=" stroke:none;fill-rule:nonzero;fill:rgb(0%,0%,0%);fill-opacity:1;" d="M 13 27.800781 C 15.375 26.867188 14.851562 24.292969 13.652344 22.667969 C 12.464844 21 10.828125 19.851562 9.171875 18.746094 C 8 18 6.921875 17.066406 6.054688 16 C 5.679688 15.558594 4.921875 14.746094 5.691406 14.585938 C 6.480469 14.425781 7.839844 15.199219 8.535156 15.492188 C 9.746094 16 10.945312 16.585938 12.066406 17.28125 L 13.414062 15.011719 C 11.332031 13.640625 8.667969 12.425781 6.1875 12.066406 C 4.773438 11.851562 3.28125 12.148438 2.800781 13.679688 C 2.375 15 3.054688 16.332031 3.828125 17.375 C 5.652344 19.8125 8.492188 20.988281 10.613281 23.09375 C 11.066406 23.535156 11.613281 24.054688 11.878906 24.667969 C 12.160156 25.253906 12.09375 25.292969 11.464844 25.292969 C 9.8125 25.292969 7.746094 24 6.398438 23.148438 L 5.054688 25.414062 C 7.09375 26.667969 10.507812 28.625 13 27.800781 M 27.785156 7 C 28.078125 6.707031 28.078125 6.226562 27.785156 5.945312 L 26.054688 4.214844 C 25.773438 3.933594 25.292969 3.933594 25.011719 4.214844 L 23.652344 5.574219 L 26.425781 8.347656 M 14.667969 14.558594 L 14.667969 17.332031 L 17.441406 17.332031 L 25.640625 9.132812 L 22.867188 6.359375 Z M 14.667969 14.558594 "/>
</g>
</svg>
