<?xml version="1.0" encoding="UTF-8"?>
<svg xmlns="http://www.w3.org/2000/svg" xmlns:xlink="http://www.w3.org/1999/xlink" width="32px" height="32px" viewBox="0 0 32 32" version="1.1">
<g id="surface1">
<path style=" stroke:none;fill-rule:nonzero;fill:rgb(0%,0%,0%);fill-opacity:1;" d="M 22.878906 11.75 C 24.78125 10.574219 25.671875 8.28125 25.058594 6.132812 C 24.449219 3.980469 22.484375 2.5 20.25 2.5 L 11.75 2.5 C 9.515625 2.5 7.550781 3.980469 6.941406 6.132812 C 6.328125 8.28125 7.21875 10.574219 9.121094 11.75 C 7.648438 12.660156 6.75 14.269531 6.75 16 C 6.75 17.730469 7.648438 19.339844 9.121094 20.25 C 7.074219 21.515625 6.21875 24.0625 7.089844 26.304688 C 7.957031 28.550781 10.304688 29.855469 12.667969 29.414062 C 15.035156 28.972656 16.75 26.90625 16.75 24.5 L 16.75 19.566406 C 18.117188 20.910156 20.136719 21.351562 21.941406 20.703125 C 23.75 20.054688 25.023438 18.429688 25.222656 16.523438 C 25.421875 14.613281 24.511719 12.757812 22.878906 11.75 Z M 23.75 7.5 C 23.746094 9.429688 22.183594 10.996094 20.253906 11 L 16.75 11 L 16.75 4 L 20.25 4 C 22.183594 4.003906 23.746094 5.566406 23.75 7.5 Z M 8.25 7.5 C 8.253906 5.566406 9.816406 4.003906 11.75 4 L 15.25 4 L 15.25 11 L 11.746094 11 C 9.816406 10.996094 8.253906 9.429688 8.25 7.5 Z M 8.25 16 C 8.253906 14.070312 9.816406 12.503906 11.746094 12.5 L 15.25 12.5 L 15.25 19.5 L 11.75 19.5 C 9.816406 19.496094 8.253906 17.933594 8.25 16 Z M 11.75 28 C 9.816406 28 8.246094 26.433594 8.246094 24.5 C 8.246094 22.566406 9.816406 21 11.75 21 L 15.25 21 L 15.25 24.5 C 15.246094 26.433594 13.683594 27.996094 11.75 28 Z M 20.25 19.5 C 18.320312 19.5 16.753906 17.933594 16.75 16.003906 C 16.75 14.070312 18.3125 12.503906 20.246094 12.5 L 20.253906 12.5 C 22.183594 12.503906 23.75 14.070312 23.746094 16 C 23.746094 17.933594 22.183594 19.5 20.25 19.5 Z M 20.25 19.5 "/>
</g>
</svg>
