<?xml version="1.0" encoding="UTF-8"?>
<svg xmlns="http://www.w3.org/2000/svg" xmlns:xlink="http://www.w3.org/1999/xlink" width="32px" height="32px" viewBox="0 0 32 32" version="1.1">
<g id="surface1">
<path style=" stroke:none;fill-rule:nonzero;fill:rgb(0%,0%,0%);fill-opacity:1;" d="M 28.226562 17.863281 L 21.765625 23.734375 C 20.761719 24.644531 19.699219 24.804688 19.226562 24.828125 L 6.914062 24.828125 C 5.945312 24.828125 4.929688 24.46875 4.835938 24.4375 C 4.535156 24.292969 4.21875 24.121094 3.898438 23.914062 C 0.371094 21.65625 1.429688 17.34375 1.601562 16.730469 C 1.605469 16.71875 1.609375 16.710938 1.613281 16.699219 C 1.621094 16.667969 1.625 16.648438 1.625 16.648438 C 2.382812 14.246094 4.171875 12.5 7.535156 12.398438 C 7.957031 12.40625 9.171875 12.503906 10.253906 13.324219 C 10.523438 13.542969 10.789062 13.796875 11.050781 14.105469 C 11.566406 14.773438 12.761719 16.714844 12.21875 18.957031 C 11.777344 20.429688 11.140625 21.066406 10.261719 21.660156 C 9.382812 22.25 7.636719 22.796875 6 21.792969 C 5.042969 21.140625 4.316406 20.019531 4.453125 18.53125 C 4.589844 17.046875 6.121094 15.96875 7.484375 16.289062 C 8.851562 16.605469 9.65625 18.652344 8.183594 19.472656 C 7.488281 19.769531 7.070312 19.59375 6.796875 19.21875 C 6.796875 19.21875 6.402344 18.851562 5.898438 19.078125 C 5.40625 19.304688 5.5625 20.011719 5.566406 20.023438 C 6.105469 20.816406 7.144531 21.410156 8.703125 20.863281 C 9.0625 20.734375 9.351562 20.539062 9.597656 20.300781 L 9.601562 20.300781 C 9.601562 20.300781 9.625 20.273438 9.65625 20.238281 C 9.710938 20.183594 9.761719 20.125 9.808594 20.066406 C 10.34375 19.40625 11.601562 17.417969 9.601562 15.175781 C 8.433594 14.238281 4.820312 13.234375 3.308594 17.265625 C 3.253906 17.398438 3.203125 17.535156 3.160156 17.679688 C 3.152344 17.699219 3.144531 17.714844 3.136719 17.734375 C 3.140625 17.738281 3.140625 17.734375 3.140625 17.738281 C 2.875 18.648438 2.875 19.761719 3.421875 21.003906 C 4.636719 23.765625 8.136719 24.507812 10.6875 23.144531 C 11.148438 22.898438 11.566406 22.589844 11.9375 22.238281 L 11.933594 22.242188 L 18.09375 17.414062 C 18.09375 17.414062 18.523438 17.023438 19.183594 17.023438 L 28.214844 17.023438 C 29.09375 17.023438 28.328125 17.765625 28.226562 17.863281 Z M 12.183594 8.5 C 12.210938 8.484375 16.648438 5.925781 19.023438 8.9375 C 19.335938 9.371094 19.667969 9.898438 19.917969 10.472656 C 19.945312 10.554688 20.632812 13.019531 19.492188 14.289062 C 19.480469 14.300781 19.472656 14.3125 19.460938 14.324219 C 19.4375 14.351562 19.402344 14.375 19.378906 14.398438 C 19.277344 14.492188 19.171875 14.585938 19.054688 14.675781 L 14.089844 18.382812 C 14.210938 16.226562 13.324219 14.070312 12.878906 13.351562 C 11.730469 11.695312 10.113281 11.144531 9.121094 10.960938 C 8.8125 10.90625 8.234375 10.898438 8.234375 10.898438 Z M 31.367188 15.578125 L 20.84375 15.578125 C 20.480469 15.578125 20.84375 15.238281 20.84375 15.238281 L 20.839844 15.238281 C 21.003906 15.085938 21.136719 14.945312 21.230469 14.835938 C 22.910156 12.617188 21.480469 9.316406 21.257812 8.84375 C 20.472656 7.460938 19.519531 6.703125 18.558594 6.316406 C 18.484375 6.289062 18.414062 6.265625 18.328125 6.226562 C 17.894531 6.066406 17.390625 5.914062 16.832031 5.800781 C 14.394531 5.4375 12.082031 6.578125 12.0625 6.585938 C 9.953125 7.789062 4.574219 10.957031 2.175781 13.25 C 2.058594 13.359375 1.941406 13.472656 1.832031 13.59375 C 1.742188 13.6875 1.660156 13.777344 1.585938 13.867188 C 1.566406 13.890625 1.542969 13.910156 1.523438 13.9375 C 1.453125 14.023438 1.386719 14.109375 1.328125 14.191406 L 1.34375 14.1875 C 0.875 14.828125 0.488281 15.59375 0.25 16.515625 C -0.511719 18.914062 0.308594 24.273438 4.816406 25.960938 C 5.019531 26.027344 5.890625 26.285156 7.199219 26.285156 L 19.554688 26.285156 C 19.984375 26.265625 21.007812 26.128906 21.996094 25.25 C 21.996094 25.246094 21.996094 25.246094 21.996094 25.246094 L 31.191406 17.023438 L 31.453125 16.789062 C 32.757812 15.621094 31.367188 15.578125 31.367188 15.578125 Z M 31.367188 15.578125 "/>
</g>
</svg>
